<svg width="614" height="148" viewBox="0 0 614 148" fill="none" xmlns="http://www.w3.org/2000/svg">
<path d="M534.046 122.063L604.017 48.204C606.199 45.9008 609.851 45.8514 612.095 48.0948C614.264 50.2644 614.3 53.7707 612.175 55.984L592 77L548.361 123.784C540.796 131.895 530.202 136.5 519.111 136.5H486.387C477.087 136.5 468.078 133.26 460.909 127.336L330.591 19.6637C323.422 13.7403 314.413 10.5 305.113 10.5H114.5C83.5 10.5 78.5 25.5 78.5 46V101.346C78.5 110.198 75.5638 118.8 70.1514 125.804L65.0098 132.458C57.4352 142.26 45.7463 148 33.3584 148H-8.25C-10.8734 148 -13 145.873 -13 143.25C-13 140.627 -10.8734 138.5 -8.25 138.5H28C50.0914 138.5 68 120.591 68 98.5V40C68 17.9086 85.9086 0 108 0H305.694C314.639 0 323.326 2.99822 330.367 8.51559L480.335 126.037C496.583 138.769 519.85 137.047 534.046 122.063Z" fill="url(#paint0_linear)"/>
<defs>
<linearGradient id="paint0_linear" x1="-20.5" y1="74" x2="616" y2="74" gradientUnits="userSpaceOnUse">
<stop stop-color="#FF8D29" stop-opacity="0.4"/>
<stop offset="1" stop-color="#FF6961" stop-opacity="0.8"/>
</linearGradient>
</defs>
</svg>
