<svg width="600" height="148" viewBox="0 0 600 148" fill="none" xmlns="http://www.w3.org/2000/svg">
<path d="M520.046 122.063L590.017 48.204C592.199 45.9008 595.851 45.8514 598.095 48.0948C600.264 50.2644 600.3 53.7707 598.175 55.984L578 77L534.361 123.784C526.796 131.895 516.202 136.5 505.111 136.5H472.387C463.087 136.5 454.078 133.26 446.909 127.336L316.591 19.6637C309.422 13.7403 300.413 10.5 291.113 10.5H100.5C69.5 10.5 64.5 25.5 64.5 46V101.346C64.5 110.198 61.5638 118.8 56.1514 125.804L51.0098 132.458C43.4352 142.26 31.7463 148 19.3584 148H-22.25C-24.8734 148 -27 145.873 -27 143.25C-27 140.627 -24.8734 138.5 -22.25 138.5H14C36.0914 138.5 54 120.591 54 98.5V40C54 17.9086 71.9086 0 94 0H291.694C300.639 0 309.326 2.99822 316.367 8.51559L466.335 126.037C482.583 138.769 505.85 137.047 520.046 122.063Z" fill="url(#paint0_linear)"/>
<defs>
<linearGradient id="paint0_linear" x1="-34.5" y1="74" x2="602" y2="74" gradientUnits="userSpaceOnUse">
<stop stop-color="#4777B4" stop-opacity="0"/>
<stop offset="1" stop-color="#4777B4"/>
</linearGradient>
</defs>
</svg>
