<svg width="59" height="59" viewBox="0 0 59 59" fill="none" xmlns="http://www.w3.org/2000/svg">
<g clip-path="url(#clip0)">
<path d="M10 20C10 8.95431 18.9543 0 30 0C41.0457 0 50 8.95431 50 20C50 31.0457 41.0457 40 30 40C18.9543 40 10 31.0457 10 20Z" fill="white"/>
<rect x="-4" y="23.6647" width="49.0233" height="9.88745" transform="rotate(-45 -4 23.6647)" fill="#00224E"/>
<rect x="24.3616" y="45.9404" width="58.3944" height="18.9593" transform="rotate(-45 24.3616 45.9404)" fill="#1C477E"/>
<rect x="14.8909" y="37.1093" width="44.1496" height="11.9089" transform="rotate(-45 14.8909 37.1093)" fill="#133B6F"/>
<rect x="3" y="32.0891" width="48.2093" height="10.9084" transform="rotate(-45 3 32.0891)" fill="#0B3060"/>
</g>
<path d="M5.92797 52.4L7.99797 56H5.33797L3.99797 53.47H3.33797V56H0.977969V49H3.33797V51.61H4.05797L5.54797 49H8.00797L5.92797 52.4ZM11.9505 56.16C11.2105 56.16 10.5439 56.0067 9.95055 55.7C9.35721 55.3867 8.89055 54.9533 8.55055 54.4C8.21721 53.84 8.05055 53.2067 8.05055 52.5C8.05055 51.7933 8.21721 51.1633 8.55055 50.61C8.89055 50.05 9.35721 49.6167 9.95055 49.31C10.5439 48.9967 11.2105 48.84 11.9505 48.84C12.6305 48.84 13.2372 48.96 13.7705 49.2C14.3039 49.44 14.7439 49.7867 15.0905 50.24L13.6005 51.57C13.1672 51.0233 12.6572 50.75 12.0705 50.75C11.5772 50.75 11.1805 50.91 10.8805 51.23C10.5805 51.5433 10.4305 51.9667 10.4305 52.5C10.4305 53.0333 10.5805 53.46 10.8805 53.78C11.1805 54.0933 11.5772 54.25 12.0705 54.25C12.6572 54.25 13.1672 53.9767 13.6005 53.43L15.0905 54.76C14.7439 55.2133 14.3039 55.56 13.7705 55.8C13.2372 56.04 12.6305 56.16 11.9505 56.16ZM20.6459 54.78H17.9859L17.5159 56H15.1159L18.1759 49H20.4959L23.5559 56H21.1159L20.6459 54.78ZM19.9959 53.08L19.3159 51.32L18.6359 53.08H19.9959Z" fill="url(#paint0_linear)"/>
<path d="M33.4501 56L33.4301 52.81L31.9101 55.37H30.8701L29.3501 52.92V56H27.2001V49H29.1401L31.4201 52.73L33.6401 49H35.5801L35.6001 56H33.4501ZM42.789 50.83H40.739V56H38.419V50.83H36.369V49H42.789V50.83ZM47.0296 56.16C46.2763 56.16 45.5996 56.0033 44.9996 55.69C44.3996 55.3767 43.9296 54.9433 43.5896 54.39C43.2496 53.83 43.0796 53.2 43.0796 52.5C43.0796 51.8 43.2496 51.1733 43.5896 50.62C43.9296 50.06 44.3996 49.6233 44.9996 49.31C45.5996 48.9967 46.2763 48.84 47.0296 48.84C47.7829 48.84 48.4596 48.9967 49.0596 49.31C49.6596 49.6233 50.1296 50.06 50.4696 50.62C50.8096 51.1733 50.9796 51.8 50.9796 52.5C50.9796 53.2 50.8096 53.83 50.4696 54.39C50.1296 54.9433 49.6596 55.3767 49.0596 55.69C48.4596 56.0033 47.7829 56.16 47.0296 56.16ZM47.0296 54.25C47.3229 54.25 47.5863 54.18 47.8196 54.04C48.0596 53.8933 48.2496 53.69 48.3896 53.43C48.5296 53.1633 48.5996 52.8533 48.5996 52.5C48.5996 52.1467 48.5296 51.84 48.3896 51.58C48.2496 51.3133 48.0596 51.11 47.8196 50.97C47.5863 50.8233 47.3229 50.75 47.0296 50.75C46.7363 50.75 46.4696 50.8233 46.2296 50.97C45.9963 51.11 45.8096 51.3133 45.6696 51.58C45.5296 51.84 45.4596 52.1467 45.4596 52.5C45.4596 52.8533 45.5296 53.1633 45.6696 53.43C45.8096 53.69 45.9963 53.8933 46.2296 54.04C46.4696 54.18 46.7363 54.25 47.0296 54.25ZM55.199 49C55.8457 49 56.409 49.1067 56.889 49.32C57.369 49.5333 57.739 49.84 57.999 50.24C58.259 50.64 58.389 51.1067 58.389 51.64C58.389 52.1733 58.259 52.64 57.999 53.04C57.739 53.44 57.369 53.7467 56.889 53.96C56.409 54.1733 55.8457 54.28 55.199 54.28H54.189V56H51.829V49H55.199ZM55.049 52.46C55.369 52.46 55.609 52.39 55.769 52.25C55.929 52.1033 56.009 51.9 56.009 51.64C56.009 51.38 55.929 51.18 55.769 51.04C55.609 50.8933 55.369 50.82 55.049 50.82H54.189V52.46H55.049Z" fill="url(#paint1_linear)"/>
<defs>
<linearGradient id="paint0_linear" x1="29.5" y1="45" x2="29.5" y2="59" gradientUnits="userSpaceOnUse">
<stop stop-color="#00224E"/>
<stop offset="1" stop-color="#4777B4"/>
</linearGradient>
<linearGradient id="paint1_linear" x1="29.5" y1="45" x2="29.5" y2="59" gradientUnits="userSpaceOnUse">
<stop stop-color="#FF8D29"/>
<stop offset="1" stop-color="#FF6961"/>
</linearGradient>
<clipPath id="clip0">
<path d="M10 20C10 8.95431 18.9543 0 30 0C41.0457 0 50 8.95431 50 20C50 31.0457 41.0457 40 30 40C18.9543 40 10 31.0457 10 20Z" fill="white"/>
</clipPath>
</defs>
</svg>
